<svg width="512" height="512" viewBox="0 0 512 512" xmlns="http://www.w3.org/2000/svg">
  <!-- Black background -->
  <rect width="512" height="512" fill="#000000" rx="90" ry="90"/>
  
  <!-- White Pantheon temple -->
  <g fill="#ffffff" transform="translate(256, 256)">
    <!-- Base platform -->
    <rect x="-140" y="80" width="280" height="20" fill="#ffffff"/>
    
    <!-- Steps -->
    <rect x="-150" y="100" width="300" height="8" fill="#ffffff"/>
    <rect x="-160" y="108" width="320" height="8" fill="#ffffff"/>
    <rect x="-170" y="116" width="340" height="8" fill="#ffffff"/>
    
    <!-- Main temple base -->
    <rect x="-120" y="40" width="240" height="40" fill="#ffffff"/>
    
    <!-- Columns (8 columns) -->
    <rect x="-110" y="-60" width="12" height="100" fill="#ffffff"/>
    <rect x="-80" y="-60" width="12" height="100" fill="#ffffff"/>
    <rect x="-50" y="-60" width="12" height="100" fill="#ffffff"/>
    <rect x="-20" y="-60" width="12" height="100" fill="#ffffff"/>
    <rect x="10" y="-60" width="12" height="100" fill="#ffffff"/>
    <rect x="40" y="-60" width="12" height="100" fill="#ffffff"/>
    <rect x="70" y="-60" width="12" height="100" fill="#ffffff"/>
    <rect x="100" y="-60" width="12" height="100" fill="#ffffff"/>
    
    <!-- Entablature (horizontal beam above columns) -->
    <rect x="-130" y="-70" width="260" height="15" fill="#ffffff"/>
    
    <!-- Pediment (triangular top) -->
    <polygon points="-140,-70 0,-140 140,-70" fill="#ffffff"/>
    
    <!-- Pediment base -->
    <rect x="-140" y="-75" width="280" height="5" fill="#ffffff"/>
    
    <!-- Column capitals (decorative tops) -->
    <rect x="-115" y="-75" width="22" height="5" fill="#ffffff"/>
    <rect x="-85" y="-75" width="22" height="5" fill="#ffffff"/>
    <rect x="-55" y="-75" width="22" height="5" fill="#ffffff"/>
    <rect x="-25" y="-75" width="22" height="5" fill="#ffffff"/>
    <rect x="5" y="-75" width="22" height="5" fill="#ffffff"/>
    <rect x="35" y="-75" width="22" height="5" fill="#ffffff"/>
    <rect x="65" y="-75" width="22" height="5" fill="#ffffff"/>
    <rect x="95" y="-75" width="22" height="5" fill="#ffffff"/>
    
    <!-- Central door/entrance -->
    <rect x="-15" y="10" width="30" height="30" fill="#000000"/>
    
    <!-- Decorative elements in pediment -->
    <circle cx="0" cy="-100" r="8" fill="#ffffff"/>
    <rect x="-40" y="-110" width="80" height="3" fill="#ffffff"/>
    <rect x="-60" y="-105" width="120" height="2" fill="#ffffff"/>
    
    <!-- Side decorative elements -->
    <rect x="-70" y="-95" width="15" height="15" fill="#ffffff"/>
    <rect x="55" y="-95" width="15" height="15" fill="#ffffff"/>
  </g>
</svg>