<svg width="512" height="512" viewBox="0 0 512 512" xmlns="http://www.w3.org/2000/svg">
  <!-- Black background with rounded corners -->
  <rect width="512" height="512" fill="#000000" rx="90" ry="90"/>
  
  <!-- White Pantheon temple -->
  <g fill="#ffffff" transform="translate(256, 280)">
    <!-- Base platform (stylobate) -->
    <rect x="-160" y="60" width="320" height="16" fill="#ffffff"/>
    
    <!-- Steps (crepidoma) -->
    <rect x="-170" y="76" width="340" height="12" fill="#ffffff"/>
    <rect x="-180" y="88" width="360" height="12" fill="#ffffff"/>
    <rect x="-190" y="100" width="380" height="12" fill="#ffffff"/>
    
    <!-- Main temple floor -->
    <rect x="-150" y="20" width="300" height="40" fill="#ffffff"/>
    
    <!-- Columns (16 columns for more authentic look) -->
    <!-- Front row -->
    <rect x="-140" y="-80" width="8" height="100" fill="#ffffff"/>
    <rect x="-120" y="-80" width="8" height="100" fill="#ffffff"/>
    <rect x="-100" y="-80" width="8" height="100" fill="#ffffff"/>
    <rect x="-80" y="-80" width="8" height="100" fill="#ffffff"/>
    <rect x="-60" y="-80" width="8" height="100" fill="#ffffff"/>
    <rect x="-40" y="-80" width="8" height="100" fill="#ffffff"/>
    <rect x="-20" y="-80" width="8" height="100" fill="#ffffff"/>
    <rect x="0" y="-80" width="8" height="100" fill="#ffffff"/>
    <rect x="20" y="-80" width="8" height="100" fill="#ffffff"/>
    <rect x="40" y="-80" width="8" height="100" fill="#ffffff"/>
    <rect x="60" y="-80" width="8" height="100" fill="#ffffff"/>
    <rect x="80" y="-80" width="8" height="100" fill="#ffffff"/>
    <rect x="100" y="-80" width="8" height="100" fill="#ffffff"/>
    <rect x="120" y="-80" width="8" height="100" fill="#ffffff"/>
    <rect x="140" y="-80" width="8" height="100" fill="#ffffff"/>
    
    <!-- Side columns (depth) -->
    <rect x="150" y="-80" width="8" height="100" fill="#ffffff"/>
    <rect x="-150" y="-80" width="8" height="100" fill="#ffffff"/>
    
    <!-- Column capitals -->
    <rect x="-145" y="-85" width="18" height="5" fill="#ffffff"/>
    <rect x="-125" y="-85" width="18" height="5" fill="#ffffff"/>
    <rect x="-105" y="-85" width="18" height="5" fill="#ffffff"/>
    <rect x="-85" y="-85" width="18" height="5" fill="#ffffff"/>
    <rect x="-65" y="-85" width="18" height="5" fill="#ffffff"/>
    <rect x="-45" y="-85" width="18" height="5" fill="#ffffff"/>
    <rect x="-25" y="-85" width="18" height="5" fill="#ffffff"/>
    <rect x="-5" y="-85" width="18" height="5" fill="#ffffff"/>
    <rect x="15" y="-85" width="18" height="5" fill="#ffffff"/>
    <rect x="35" y="-85" width="18" height="5" fill="#ffffff"/>
    <rect x="55" y="-85" width="18" height="5" fill="#ffffff"/>
    <rect x="75" y="-85" width="18" height="5" fill="#ffffff"/>
    <rect x="95" y="-85" width="18" height="5" fill="#ffffff"/>
    <rect x="115" y="-85" width="18" height="5" fill="#ffffff"/>
    <rect x="135" y="-85" width="18" height="5" fill="#ffffff"/>
    <rect x="145" y="-85" width="18" height="5" fill="#ffffff"/>
    <rect x="-155" y="-85" width="18" height="5" fill="#ffffff"/>
    
    <!-- Entablature (architrave, frieze, cornice) -->
    <rect x="-160" y="-90" width="320" height="8" fill="#ffffff"/>
    <rect x="-165" y="-98" width="330" height="8" fill="#ffffff"/>
    <rect x="-170" y="-106" width="340" height="8" fill="#ffffff"/>
    
    <!-- Pediment (triangular top) -->
    <polygon points="-170,-106 0,-180 170,-106" fill="#ffffff"/>
    
    <!-- Pediment tympanum (decorative area) -->
    <circle cx="0" cy="-130" r="12" fill="#ffffff"/>
    <polygon points="-30,-140 -20,-130 -40,-130" fill="#ffffff"/>
    <polygon points="30,-140 20,-130 40,-130" fill="#ffffff"/>
    
    <!-- Frieze decoration -->
    <rect x="-120" y="-96" width="240" height="4" fill="#ffffff"/>
    
    <!-- Central entrance -->
    <rect x="-20" y="-10" width="40" height="50" fill="#000000"/>
    
    <!-- Entrance columns -->
    <rect x="-25" y="-40" width="6" height="50" fill="#ffffff"/>
    <rect x="19" y="-40" width="6" height="50" fill="#ffffff"/>
    
    <!-- Entrance lintel -->
    <rect x="-30" y="-45" width="60" height="5" fill="#ffffff"/>
    
    <!-- Small decorative elements -->
    <rect x="-8" y="-35" width="16" height="3" fill="#ffffff"/>
    
    <!-- Roof tiles indication -->
    <polygon points="-160,-106 -140,-120 160,-120 170,-106" fill="#ffffff" opacity="0.3"/>
  </g>
</svg>